<mxfile host="app.diagrams.net" agent="Mozilla/5.0 (Windows NT 10.0; Win64; x64) AppleWebKit/537.36 (KHTML, like Gecko) Chrome/141.0.0.0 Safari/537.36" scale="1" border="15" version="28.2.8">
  <diagram name="JSON 구조 2" id="json-2">
    <mxGraphModel dx="3598" dy="914" grid="1" gridSize="10" guides="1" tooltips="1" connect="1" arrows="1" fold="1" page="1" pageScale="1" pageWidth="1920" pageHeight="1080" background="light-dark(#FFFFFF,#FFFFFF)" math="0" shadow="0">
      <root>
        <mxCell id="0" />
        <mxCell id="1" parent="0" />
        <mxCell id="title" value="ENROLLMENT_DATA JSON 구조 (2/3) - 성적 데이터: 출석 점수" style="text;html=1;strokeColor=none;fillColor=none;align=center;verticalAlign=middle;whiteSpace=wrap;rounded=0;fontSize=36;fontStyle=1;fontColor=light-dark(#1A1A1A,#000000);" parent="1" vertex="1">
          <mxGeometry x="-1730" y="50" width="1550" height="70" as="geometry" />
        </mxCell>
        <mxCell id="json-box3-title" value="3️⃣ grade.attendanceScore (출석 점수)" style="rounded=1;whiteSpace=wrap;html=1;fillColor=#60a917;strokeColor=#2D7600;strokeWidth=4;fontSize=24;fontColor=#ffffff;fontStyle=1;align=center;" parent="1" vertex="1">
          <mxGeometry x="-1780" y="150" width="800" height="70" as="geometry" />
        </mxCell>
        <mxCell id="json-box3" value="" style="rounded=1;whiteSpace=wrap;html=1;fillColor=#008a00;strokeColor=#005700;strokeWidth=4;align=left;verticalAlign=top;fontColor=#ffffff;arcSize=5;" parent="1" vertex="1">
          <mxGeometry x="-1780" y="240" width="800" height="700" as="geometry" />
        </mxCell>
        <mxCell id="json-content3" value="&lt;font face=&quot;Courier New&quot; style=&quot;font-size: 22px;&quot;&gt;&lt;font style=&quot;color: light-dark(rgb(0, 0, 0), rgb(0, 0, 0));&quot;&gt;{&lt;/font&gt;&lt;br&gt;  &lt;font style=&quot;&quot;&gt;&lt;font style=&quot;color: light-dark(rgb(211, 47, 47), rgb(153, 0, 0));&quot;&gt;&lt;span style=&quot;font-weight: bold;&quot;&gt;&quot;currentScore&quot;: 75.5&lt;/span&gt;,&lt;br&gt;  &lt;span style=&quot;font-weight: bold;&quot;&gt;// 현재 출석 점수 (자동 계산) ✅&lt;/span&gt;&lt;br&gt;  &lt;span style=&quot;font-weight: bold;&quot;&gt;// 공식: (출석횟수 × 출석만점 ÷ 전체세션) - (지각횟수 × 지각감점)&lt;/span&gt;&lt;br&gt;  &lt;span style=&quot;font-weight: bold;&quot;&gt;// 계산: (50 × 120 ÷ 80) - (5 × 0.75) = 75.5&lt;/span&gt;&lt;/font&gt;&lt;br&gt;&lt;/font&gt;&lt;font style=&quot;&quot;&gt;&lt;br&gt;&lt;font style=&quot;color: light-dark(rgb(0, 0, 0), rgb(0, 0, 0));&quot;&gt;  &quot;latePenalty&quot;: -3.75,&lt;br&gt;  &lt;span&gt;// 지각 감점 (지각 5회 × 0.75점)&lt;/span&gt;&lt;br&gt;&lt;br&gt;  &quot;presentCount&quot;: 50,&lt;br&gt;  &lt;span&gt;// 출석 횟수&lt;/span&gt;&lt;br&gt;&lt;br&gt;  &quot;lateCount&quot;: 5,&lt;br&gt;  &lt;span&gt;// 지각 횟수&lt;/span&gt;&lt;br&gt;&lt;br&gt;  &quot;absentCount&quot;: 2,&lt;br&gt;  &lt;span&gt;// 결석 횟수&lt;/span&gt;&lt;br&gt;&lt;br&gt;  &quot;maxScore&quot;: 120.0&lt;br&gt;  &lt;span&gt;// 출석 만점 (gradeConfig.attendanceMaxScore와 동일)&lt;/span&gt;&lt;br&gt;}&lt;/font&gt;&lt;/font&gt;&lt;/font&gt;" style="text;html=1;strokeColor=none;fillColor=none;align=left;verticalAlign=top;whiteSpace=wrap;rounded=0;fontSize=22;fontColor=#212121;" parent="1" vertex="1">
          <mxGeometry x="-1730" y="280" width="740" height="630" as="geometry" />
        </mxCell>
        <mxCell id="explanation-box" value="💡 출석 점수 계산 상세 설명" style="rounded=1;whiteSpace=wrap;html=1;fillColor=#e51400;strokeColor=#B20000;strokeWidth=4;fontSize=24;fontColor=#ffffff;fontStyle=1;align=center;" parent="1" vertex="1">
          <mxGeometry x="-900" y="140" width="820" height="70" as="geometry" />
        </mxCell>
        <mxCell id="note-box" value="📌 참고 정보" style="rounded=1;whiteSpace=wrap;html=1;fillColor=#1ba1e2;strokeColor=#006EAF;strokeWidth=4;fontSize=24;fontColor=#ffffff;fontStyle=1;align=center;" parent="1" vertex="1">
          <mxGeometry x="-900" y="670" width="820" height="70" as="geometry" />
        </mxCell>
        <mxCell id="ye1qorhx9J5kGeVALSBb-1" style="edgeStyle=orthogonalEdgeStyle;rounded=0;orthogonalLoop=1;jettySize=auto;html=1;" parent="1" source="explanation-content" target="explanation-content" edge="1">
          <mxGeometry relative="1" as="geometry" />
        </mxCell>
        <mxCell id="ye1qorhx9J5kGeVALSBb-2" value="" style="rounded=1;whiteSpace=wrap;html=1;fillColor=#a20025;strokeColor=#6F0000;strokeWidth=4;align=left;verticalAlign=top;fontColor=#ffffff;arcSize=6;" parent="1" vertex="1">
          <mxGeometry x="-900" y="220" width="820" height="420" as="geometry" />
        </mxCell>
        <mxCell id="explanation-content" value="&lt;font style=&quot;color: light-dark(rgb(0, 0, 0), rgb(0, 0, 0));&quot;&gt;&lt;b style=&quot;font-size: 20px;&quot;&gt;1. 기본 출석 점수 계산&lt;/b&gt;&lt;br style=&quot;font-size: 20px;&quot;&gt;&lt;font face=&quot;Courier New&quot; style=&quot;font-size: 20px;&quot;&gt;   출석점수 = (출석횟수 × 출석만점) ÷ 전체세션&lt;br&gt;   예시: (50 × 120) ÷ 80 = 75점&lt;/font&gt;&lt;br&gt;&lt;br&gt;&lt;b style=&quot;font-size: 20px;&quot;&gt;2. 지각 감점 적용&lt;/b&gt;&lt;br style=&quot;font-size: 20px;&quot;&gt;&lt;font face=&quot;Courier New&quot; style=&quot;font-size: 20px;&quot;&gt;   지각감점 = 지각횟수 × latePenaltyPerSession&lt;br&gt;   예시: 5 × 0.75 = 3.75점&lt;/font&gt;&lt;br&gt;&lt;br&gt;&lt;b style=&quot;font-size: 20px;&quot;&gt;3. 최종 출석 점수&lt;/b&gt;&lt;br style=&quot;font-size: 20px;&quot;&gt;&lt;font face=&quot;Courier New&quot; style=&quot;font-size: 20px;&quot;&gt;   최종점수 = 기본점수 - 지각감점&lt;br&gt;   예시: 75 - 3.75 = 71.25점&lt;/font&gt;&lt;/font&gt;&lt;br&gt;&lt;br&gt;&lt;font style=&quot;font-size: 20px; color: light-dark(rgb(211, 47, 47), rgb(0, 0, 204));&quot;&gt;&lt;b style=&quot;&quot;&gt;⚠️ 중요:&lt;/b&gt; 출석 승인 시 GradeUpdateEvent가 발행되어 자동으로 재계산됩니다.&lt;/font&gt;" style="text;html=1;strokeColor=none;fillColor=none;align=left;verticalAlign=top;whiteSpace=wrap;rounded=1;fontSize=20;fontColor=#424242;strokeWidth=2;" parent="1" vertex="1">
          <mxGeometry x="-870" y="250" width="690" height="350" as="geometry" />
        </mxCell>
        <mxCell id="ye1qorhx9J5kGeVALSBb-3" value="" style="rounded=1;whiteSpace=wrap;html=1;fillColor=#0050ef;strokeColor=#001DBC;strokeWidth=4;align=left;verticalAlign=top;fontColor=#ffffff;arcSize=10;" parent="1" vertex="1">
          <mxGeometry x="-900" y="760" width="820" height="250" as="geometry" />
        </mxCell>
        <mxCell id="note-content" value="&lt;font style=&quot;color: light-dark(rgb(0, 0, 0), rgb(0, 0, 0));&quot;&gt;• &lt;b&gt;attendance.summary&lt;/b&gt;의 카운트 값들이 &lt;b&gt;grade.attendanceScore&lt;/b&gt;에 복사되어 저장됩니다.&lt;br&gt;&lt;br&gt;• &lt;b&gt;결석(ABSENT)&lt;/b&gt;은 점수 계산에서 제외됩니다. (0점 처리)&lt;br&gt;&lt;br&gt;• &lt;b&gt;출석률(attendanceRate)&lt;/b&gt;은 성적과 별개로 통계 목적으로 사용됩니다.&lt;br&gt;&lt;br&gt;• &lt;b&gt;maxScore&lt;/b&gt;는 gradeConfig.attendanceMaxScore와 동일한 값입니다.&lt;/font&gt;" style="text;html=1;strokeColor=none;fillColor=none;align=left;verticalAlign=middle;whiteSpace=wrap;rounded=1;fontSize=20;fontColor=#424242;strokeWidth=2;arcSize=0;" parent="1" vertex="1">
          <mxGeometry x="-890" y="760" width="790" height="230" as="geometry" />
        </mxCell>
      </root>
    </mxGraphModel>
  </diagram>
</mxfile>
